HIERARCHY
ROOT Hips
{
    OFFSET 0.000000 0.000000 0.000000
    CHANNELS 6 Xposition Yposition Zposition Zrotation Xrotation Yrotation
    JOINT Spine
    {
        OFFSET -0.000000 14.517291 0.000000
        CHANNELS 3 Zrotation Xrotation Yrotation
        JOINT Spine1
        {
            OFFSET -0.000000 37.558300 0.000000
            CHANNELS 3 Zrotation Xrotation Yrotation
            JOINT Neck
            {
                OFFSET -0.000000 37.404057 3.400369
                CHANNELS 3 Zrotation Xrotation Yrotation
                JOINT Head
                {
                    OFFSET -0.000000 24.785618 -3.540803
                    CHANNELS 3 Zrotation Xrotation Yrotation
                    End Site
                    {
                        OFFSET -0.000000 35.408028 0.000000
                    }
                }
            }
            JOINT LeftShoulder
            {
                OFFSET 6.992933 33.973492 -0.192664
                CHANNELS 3 Zrotation Xrotation Yrotation
                JOINT LeftArm
                {
                    OFFSET 21.527611 0.000000 0.000000
                    CHANNELS 3 Zrotation Xrotation Yrotation
                    JOINT LeftForeArm
                    {
                        OFFSET 56.353916 0.000000 0.000000
                        CHANNELS 3 Zrotation Xrotation Yrotation
                        JOINT LeftHand
                        {
                            OFFSET 47.774071 0.000000 0.000000
                            CHANNELS 3 Zrotation Xrotation Yrotation
                            End Site
                            {
                                OFFSET 26.556021 0.000000 0.000000
                            }
                        }
                    }
                }
            }
            JOINT RightShoulder
            {
                OFFSET -7.065357 33.973492 -0.192664
                CHANNELS 3 Zrotation Xrotation Yrotation
                JOINT RightArm
                {
                    OFFSET -21.527611 0.000000 0.000000
                    CHANNELS 3 Zrotation Xrotation Yrotation
                    JOINT RightForeArm
                    {
                        OFFSET -56.353916 0.000000 0.000000
                        CHANNELS 3 Zrotation Xrotation Yrotation
                        JOINT RightHand
                        {
                            OFFSET -47.774071 0.000000 0.000000
                            CHANNELS 3 Zrotation Xrotation Yrotation
                            End Site
                            {
                                OFFSET -26.556021 0.000000 0.000000
                            }
                        }
                    }
                }
            }
        }
    }
    JOINT LeftUpLeg
    {
        OFFSET 17.704014 0.000000 0.000000
        CHANNELS 3 Zrotation Xrotation Yrotation
        JOINT LeftLeg
        {
            OFFSET -0.000000 -81.181816 0.000000
            CHANNELS 3 Zrotation Xrotation Yrotation
            JOINT LeftFoot
            {
                OFFSET -0.000000 -62.821102 0.000000
                CHANNELS 3 Zrotation Xrotation Yrotation
                JOINT LeftToeBase
                {
                    OFFSET -0.000000 -11.507608 26.556021
                    CHANNELS 3 Zrotation Xrotation Yrotation
                    End Site
                    {
                        OFFSET -0.000000 0.000000 7.081605
                    }
                }
            }
        }
    }
    JOINT RightUpLeg
    {
        OFFSET -17.704014 0.000000 0.000000
        CHANNELS 3 Zrotation Xrotation Yrotation
        JOINT RightLeg
        {
            OFFSET -0.000000 -81.181816 0.000000
            CHANNELS 3 Zrotation Xrotation Yrotation
            JOINT RightFoot
            {
                OFFSET -0.000000 -62.821102 0.000000
                CHANNELS 3 Zrotation Xrotation Yrotation
                JOINT RightToeBase
                {
                    OFFSET -0.000000 -11.507608 26.556021
                    CHANNELS 3 Zrotation Xrotation Yrotation
                    End Site
                    {
                        OFFSET -0.000000 0.000000 7.081605
                    }
                }
            }
        }
    }
}
MOTION
Frames:    11
Frame Time:    0.008333
16.584194    154.177277    -104.100761    1.093962    -6.940951    39.289406    0.364116    1.004657    2.487248    -4.110544    1.724402    0.893945    -0.609592    -3.469143    -17.824860    13.905079    10.659131    -17.839075    4.041431    7.518723    -20.395832    -25.212208    23.235231    -56.830505    -6.784709    -3.669820    -105.872185    7.955342    -13.311181    -10.730182    -10.157415    2.031121    6.827663    40.548698    -11.007040    92.225792    -22.024542    -28.196667    60.273109    7.934978    -13.542980    37.997429    17.759897    -0.934439    0.570634    -14.875918    36.923920    -16.979826    6.193584    -29.152678    44.544289    0.000000    0.000000    0.000000    -17.640081    -15.862443    -13.009687    12.647789    31.666145    -13.342756    4.572305    -0.632949    -17.373579    0.000000    0.000000    0.000000    
16.578922    154.185120    -104.108665    1.080085    -6.933698    39.306526    0.383165    1.004350    2.502529    -4.128963    1.734922    0.899766    -0.577299    -3.480391    -17.828465    13.875216    10.629222    -17.846231    4.068414    7.512861    -20.402643    -25.216692    23.247158    -56.856476    -6.803406    -3.644097    -105.885139    7.951183    -13.312666    -10.739553    -10.174438    1.977470    6.842772    40.600037    -10.916784    92.324539    -21.961870    -28.145443    60.362469    7.939702    -13.501266    37.970100    17.765036    -0.961120    0.554558    -14.876122    36.923534    -16.991257    6.197795    -29.138039    44.556065    0.000000    0.000000    0.000000    -17.636280    -15.866330    -13.007508    12.653645    31.647558    -13.348787    4.591563    -0.621162    -17.396528    0.000000    0.000000    0.000000    
16.575747    154.191559    -104.113052    1.071470    -6.926453    39.327675    0.382755    1.005165    2.514054    -4.111956    1.743190    0.903655    -0.607598    -3.488710    -17.850286    13.897259    10.631442    -17.862940    4.065469    7.502975    -20.409426    -25.198736    23.277988    -56.870041    -6.800348    -3.650464    -105.898720    7.856721    -13.310920    -10.779303    -10.219461    1.937315    6.854381    40.634060    -10.835939    92.436554    -21.943813    -28.100552    60.397018    7.885825    -13.472834    37.955139    17.765600    -0.984666    0.550910    -14.860111    36.929535    -17.010542    6.183020    -29.131702    44.551834    0.000000    0.000000    0.000000    -17.634045    -15.865882    -13.032458    12.636796    31.636648    -13.332377    4.588066    -0.609012    -17.401428    0.000000    0.000000    0.000000    
16.570045    154.199905    -104.121460    1.054343    -6.915228    39.341198    0.390390    0.998886    2.524446    -4.107898    1.745428    0.907210    -0.612043    -3.490857    -17.854406    13.902004    10.631966    -17.866293    4.081101    7.501589    -20.427336    -25.187649    23.291288    -56.872589    -6.790479    -3.648781    -105.915550    7.842892    -13.298601    -10.790842    -10.244140    1.904325    6.879692    40.679977    -10.789838    92.527260    -21.844625    -27.992641    60.495686    7.878409    -13.389396    37.966576    17.770542    -1.015134    0.545792    -14.858892    36.930927    -17.021194    6.192369    -29.117065    44.562466    0.000000    0.000000    0.000000    -17.624722    -15.874590    -13.038362    12.626437    31.611786    -13.342850    4.607513    -0.586432    -17.411722    0.000000    0.000000    0.000000    
16.566116    154.207306    -104.125549    1.038126    -6.907200    39.361801    0.386442    0.995281    2.538368    -4.082372    1.748160    0.911540    -0.615037    -3.522084    -17.865948    13.886462    10.663153    -17.882303    4.087110    7.498776    -20.448307    -25.162626    23.316261    -56.881767    -6.779310    -3.669181    -105.934067    7.815850    -13.304562    -10.790304    -10.273358    1.864146    6.872838    40.707977    -10.742240    92.607689    -21.750181    -27.894913    60.591133    7.833315    -13.338470    37.838371    17.779184    -1.041644    0.523932    -14.861604    36.926601    -17.011404    6.174054    -29.112535    44.547169    0.000000    0.000000    0.000000    -17.615040    -15.876836    -13.061134    12.607293    31.596191    -13.325535    4.635290    -0.575618    -17.429409    0.000000    0.000000    0.000000    
16.566021    154.214981    -104.133820    1.030247    -6.895497    39.376266    0.386210    0.995555    2.548234    -4.071358    1.746310    0.914618    -0.627359    -3.535672    -17.873024    13.888687    10.686067    -17.890152    4.086985    7.495520    -20.463150    -25.135750    23.331589    -56.876644    -6.770062    -3.667272    -105.945908    7.829703    -13.295404    -10.813179    -10.320749    1.839413    6.869638    40.788456    -10.702052    92.705307    -21.606279    -27.789251    60.712196    7.814910    -13.286733    37.796444    17.773092    -1.061318    0.512321    -14.861312    36.916428    -16.995476    6.156124    -29.108322    44.540070    0.000000    0.000000    0.000000    -17.615826    -15.879206    -13.085096    12.587336    31.578585    -13.310363    4.650658    -0.562371    -17.431660    0.000000    0.000000    0.000000    
16.564516    154.224213    -104.140450    1.017013    -6.886470    39.388107    0.388434    0.992054    2.556926    -4.066514    1.746533    0.917467    -0.633763    -3.595183    -17.879353    13.886848    10.780051    -17.907101    4.102536    7.498351    -20.479481    -25.103252    23.346848    -56.880367    -6.746278    -3.698582    -105.946976    7.795279    -13.292923    -10.828812    -10.340620    1.813029    6.867340    40.831734    -10.666100    92.790573    -21.531315    -27.682253    60.768242    7.859458    -13.184113    37.806667    17.778009    -1.082201    0.499796    -14.862785    36.911591    -17.011206    6.157314    -29.091877    44.550087    0.000000    0.000000    0.000000    -17.608721    -15.882547    -13.097608    12.570805    31.556082    -13.321277    4.649549    -0.537096    -17.421955    0.000000    0.000000    0.000000    
16.563517    154.229797    -104.147873    1.000719    -6.870357    39.397083    0.392099    0.981770    2.567631    -4.059450    1.743791    0.920809    -0.633315    -3.653949    -17.876671    13.860299    10.865213    -17.915762    4.100915    7.494488    -20.492311    -25.094313    23.329433    -56.862343    -6.766536    -3.640733    -105.950752    7.841621    -13.267402    -10.825826    -10.388891    1.783363    6.859406    40.872265    -10.613977    92.867722    -21.521488    -27.587252    60.773277    7.915836    -13.059883    37.879715    17.780613    -1.110084    0.499952    -14.865836    36.908096    -17.018377    6.161093    -29.089523    44.558498    0.000000    0.000000    0.000000    -17.606548    -15.896592    -13.104279    12.562413    31.539911    -13.330277    4.669182    -0.521168    -17.419687    0.000000    0.000000    0.000000    
16.564850    154.237946    -104.156235    0.991693    -6.858630    39.405678    0.385874    0.986133    2.579410    -4.047271    1.735308    0.924307    -0.639801    -3.713103    -17.879938    13.856560    10.953459    -17.928804    4.107522    7.493446    -20.507021    -25.081451    23.319962    -56.854820    -6.792703    -3.599144    -105.949409    7.871643    -13.263390    -10.823551    -10.414948    1.768734    6.838515    40.877144    -10.576215    92.940964    -21.475964    -27.516420    60.818005    7.874151    -13.012339    37.877556    17.779026    -1.128974    0.501690    -14.866030    36.902828    -17.007637    6.145384    -29.072021    44.541523    0.000000    0.000000    0.000000    -17.605427    -15.903107    -13.124721    12.544311    31.525515    -13.294653    4.669216    -0.507162    -17.449423    0.000000    0.000000    0.000000    
16.565742    154.245422    -104.166580    0.981488    -6.843976    39.414402    0.380798    0.983796    2.587339    -4.040515    1.730057    0.926586    -0.640739    -3.773865    -17.879026    13.855216    11.041805    -17.938377    4.111403    7.481446    -20.527800    -25.073877    23.330486    -56.828430    -6.812818    -3.582622    -105.955925    7.878068    -13.273496    -10.797878    -10.445742    1.734575    6.826411    40.887341    -10.533037    92.987144    -21.431120    -27.441875    60.871075    7.816654    -12.966545    37.833729    17.774616    -1.153747    0.484742    -14.876447    36.895058    -16.994570    6.148836    -29.050587    44.549355    0.000000    0.000000    0.000000    -17.606678    -15.914314    -13.139896    12.526536    31.510933    -13.304437    4.683305    -0.486003    -17.431936    0.000000    0.000000    0.000000    
16.565304    154.251450    -104.176735    0.967247    -6.829799    39.418064    0.373583    0.978644    2.602129    -4.027868    1.714243    0.930769    -0.736332    -3.799398    -17.910275    14.011473    11.176374    -17.964142    4.115033    7.495398    -20.558426    -25.054066    23.314884    -56.803226    -6.816595    -3.562242    -105.951126    7.882426    -13.257838    -10.790894    -10.467416    1.725404    6.811075    40.880711    -10.510132    93.024147    -21.405046    -27.370682    60.902008    7.813896    -12.902822    37.757324    17.771908    -1.180722    0.488134    -14.868918    36.899010    -16.988258    6.116214    -29.059868    44.535088    0.000000    0.000000    0.000000    -17.603073    -15.931139    -13.141003    12.521070    31.498781    -13.298251    4.700227    -0.470241    -17.464706    0.000000    0.000000    0.000000    
